# xmcd CD database file
#
# Track frame offsets:
#	150
#	21112
#	36797
#	54391
#	73225
#	85218
#	104252
#	121111
#	133570
#	148964
#	186400
#
# Disc length: 2638 seconds
#
# Revision: 0
# Processed by: cddbd v1.5.1PL2 Copyright (c) Steve Scherf et al.
# Submitted via: CDex 1.51
#
DISCID=9d0a4c0b
DTITLE=Con Campbell Quartet - Freedom In The Groove
DYEAR=2005
DGENRE=Jazz
TTITLE0=Can It Be?
TTITLE1=What Can I Say?
TTITLE2=Freedom Comes
TTITLE3=This Is The Word
TTITLE4=Nothing But The Blood Of Jesus
TTITLE5=Faithful God
TTITLE6=I Know Your Love
TTITLE7=I'm Learning To Be Loved
TTITLE8=Alas And Did
TTITLE9=Jesus Loves Me
TTITLE10=Data Track
EXTD=YEAR: 2005
EXTT0=
EXTT1=
EXTT2=
EXTT3=
EXTT4=
EXTT5=
EXTT6=
EXTT7=
EXTT8=
EXTT9=
EXTT10=
PLAYORDER=
